HIERARCHY
ROOT WRIST
{
	OFFSET 0.000000 0.000000 0.000000
	CHANNELS 6 Xposition Yposition Zposition Yrotation Xrotation Zrotation
	JOINT THUMB_CMC_FE
	{
		OFFSET -0.225143 0.117753 -0.062308
		CHANNELS 3 Yrotation Xrotation Zrotation
		JOINT THUMB_CMC_AA
		{
			OFFSET -0.212856 -0.150507 0.098851
			CHANNELS 3 Yrotation Xrotation Zrotation
			JOINT THUMB_MCP_FE
			{
				OFFSET 0.322503 -0.167445 -0.031436
				CHANNELS 3 Yrotation Xrotation Zrotation
				JOINT THUMB_IP_FE
				{
					OFFSET -0.295233 -0.236404 0.025845
					CHANNELS 3 Yrotation Xrotation Zrotation
					End Site
					{
						OFFSET 0.000000 0.000000 0.000000
					}
				}
			}
		}
	}
	JOINT INDEX_MCP
	{
		OFFSET -1.076913 0.264198 -0.014768
		CHANNELS 3 Yrotation Xrotation Zrotation
		JOINT INDEX_PIP_FE
		{
			OFFSET -0.425053 0.013289 0.013619
			CHANNELS 3 Yrotation Xrotation Zrotation
			JOINT INDEX_DIP_FE
			{
				OFFSET -0.271505 -0.024898 0.000550
				CHANNELS 3 Yrotation Xrotation Zrotation
				End Site
				{
					OFFSET 0.000000 0.000000 0.000000
				}
			}
		}
	}
	JOINT MIDDLE_MCP
	{
		OFFSET -1.072991 0.019362 0.038780
		CHANNELS 3 Yrotation Xrotation Zrotation
		JOINT MIDDLE_PIP_FE
		{
			OFFSET -0.480704 0.002618 0.028696
			CHANNELS 3 Yrotation Xrotation Zrotation
			JOINT MIDDLE_DIP_FE
			{
				OFFSET -0.307486 -0.031129 -0.000643
				CHANNELS 3 Yrotation Xrotation Zrotation
				End Site
				{
					OFFSET 0.000000 0.000000 0.000000
				}
			}
		}
	}
	JOINT RING_MCP
	{
		OFFSET -0.994992 -0.195930 -0.005938
		CHANNELS 3 Yrotation Xrotation Zrotation
		JOINT RING_PIP_FE
		{
			OFFSET -0.436995 0.003792 0.019994
			CHANNELS 3 Yrotation Xrotation Zrotation
			JOINT RING_DIP_FE
			{
				OFFSET -0.295558 -0.038341 -0.006642
				CHANNELS 3 Yrotation Xrotation Zrotation
				End Site
				{
					OFFSET 0.000000 0.000000 0.000000
				}
			}
		}
	}
	JOINT PINKY_MCP
	{
		OFFSET -0.873858 -0.393246 -0.086282
		CHANNELS 3 Yrotation Xrotation Zrotation
		JOINT PINKY_PIP_FE
		{
			OFFSET -0.343972 -0.016492 0.013445
			CHANNELS 3 Yrotation Xrotation Zrotation
			JOINT PINKY_DIP_FE
			{
				OFFSET -0.224713 -0.036309 -0.010265
				CHANNELS 3 Yrotation Xrotation Zrotation
				End Site
				{
					OFFSET 0.000000 0.000000 0.000000
				}
			}
		}
	}
}
MOTION
Frames: 7
Frame Time: 0.008333334
0.175854 -0.017680 4.519762 31.207490 -72.811920 -22.359100 -61.461180 4.834473 -72.624150 -119.352900 -30.976930 -3.378143 112.863900 -65.843260 44.224640 -4.562103 -8.459869 21.530000 164.320400 3.263488 165.433000 41.978420 -86.125550 -30.214940 2.052632 1.705002 24.716880 169.319600 -1.800842 162.666400 39.241330 -88.411320 -20.945770 6.002524 4.395444 -1.297058 179.632600 -5.643646 164.331300 31.479640 -85.617830 -2.601990 -0.199310 0.562919 -4.968536 -168.714200 -9.361420 160.666100 48.977660 -83.530550 -2.528687 -5.539825 0.809179 4.384701 
0.175848 -0.016909 4.519401 30.900230 -72.730100 -22.063660 -61.461180 4.834451 -72.478210 -119.352900 -30.976900 -3.343597 112.863900 -65.843260 44.139180 -4.562103 -8.459839 21.559470 164.330200 3.263692 165.363700 41.978320 -86.125610 -30.301570 2.052633 1.704998 24.537140 169.571900 -1.777039 162.580400 39.241720 -88.411440 -20.751190 6.002521 4.395459 -1.362335 179.842300 -5.592041 164.241700 31.479810 -85.617800 -2.353424 -0.199310 0.562933 -4.968536 -168.723500 -9.364807 160.669600 48.977680 -83.530550 -2.913666 -5.539825 0.809183 3.894377 
0.175989 -0.017553 4.519242 31.202360 -72.730190 -22.338260 -61.461180 4.834458 -72.489380 -119.352900 -30.976930 -3.407990 112.863900 -65.843260 44.062620 -4.562103 -8.459869 21.590590 164.266400 3.262420 165.456200 41.978370 -86.125550 -30.237920 2.052630 1.704999 24.649330 169.236700 -1.808655 162.663500 39.240600 -88.411440 -21.172150 6.002527 4.395445 -1.943420 179.680000 -5.631989 164.299900 31.479830 -85.617830 -2.247162 -0.199310 0.562931 -4.968536 -168.746800 -9.373352 160.672500 48.977690 -83.530610 -2.964447 -5.539795 0.809152 4.494321 
0.175931 -0.017578 4.519491 31.062310 -72.642820 -22.239380 -61.461180 4.834458 -72.414490 -119.352900 -30.976900 -3.385376 112.863900 -65.843260 43.880280 -4.562073 -8.459839 22.140440 164.162400 3.260334 165.362300 41.978300 -86.125550 -30.453550 2.052628 1.705004 24.963270 169.284000 -1.804199 162.599800 39.241290 -88.411440 -20.834170 6.002524 4.395449 -2.295532 179.776200 -5.608276 164.232400 31.479670 -85.617800 -2.199860 -0.199310 0.562921 -4.968536 -168.579800 -9.312103 160.584200 48.977680 -83.530580 -2.811981 -5.539795 0.809176 4.560381 
0.175821 -0.017560 4.520144 31.124930 -72.690920 -22.323150 -61.461180 4.834449 -72.395320 -119.352900 -30.976930 -3.371033 112.863900 -65.843260 44.034190 -4.562103 -8.459869 21.682190 164.230900 3.261702 165.370000 41.978410 -86.125610 -30.370480 2.052634 1.704995 25.083810 169.321500 -1.800659 162.582600 39.240970 -88.411320 -20.688390 6.002526 4.395451 -1.714874 179.859800 -5.587677 164.167600 31.479670 -85.617740 -1.837860 -0.199310 0.562921 -4.968536 -168.541700 -9.298096 160.519400 48.977570 -83.530580 -2.510681 -5.539795 0.809183 4.571295 
0.176175 -0.017354 4.520258 31.239280 -72.780850 -22.401000 -61.461180 4.834451 -72.508180 -119.352900 -30.976930 -3.374634 112.864000 -65.843260 44.103050 -4.562103 -8.459839 21.578470 164.358900 3.264285 165.508500 41.978200 -86.125700 -30.075680 2.052628 1.705007 25.082540 169.328600 -1.799988 162.696700 39.241580 -88.411560 -20.217500 6.002519 4.395463 -1.908783 179.648200 -5.639801 164.300200 31.479770 -85.617740 -2.143768 -0.199310 0.562924 -4.968536 -168.756400 -9.376862 160.647200 48.977750 -83.530670 -2.754974 -5.539795 0.809180 4.662026 
0.176447 -0.017352 4.520213 31.054220 -72.695340 -22.215970 -61.461180 4.834455 -72.437740 -119.352900 -30.976930 -3.365662 112.863800 -65.843260 44.113530 -4.562103 -8.459839 21.540170 164.336900 3.263844 165.486000 41.978130 -86.125610 -30.107640 2.052629 1.705000 24.950200 169.356900 -1.797333 162.668500 39.241360 -88.411320 -20.969150 6.002521 4.395456 -1.811157 179.777100 -5.608063 164.323400 31.479760 -85.617800 -2.226410 -0.199310 0.562927 -4.968536 -168.637100 -9.333130 160.647900 48.977760 -83.530550 -2.941925 -5.539795 0.809168 4.983674 
